<svg width="166" height="32" viewBox="0 0 166 32" xmlns="http://www.w3.org/2000/svg"><path d="M46.0958247.00108v22.7697085c0 3.0386014-.8686411 5.3589551-2.6004486 6.9610612C41.9022592 31.2439499 39.7032835 32 36.9002736 32c-2.224524 0-4.140644-.5220345-5.7465351-1.5643036-1.4124541-.9072601-2.5219788-2.1619432-3.3358736-3.7658495l4.0457504-2.4715637c.6295824 1.1196741 1.2719388 1.9423287 1.9325439 2.4715637.8102451.6210411 1.77013.9306616 2.87418.9306616 2.9562995 0 4.436274-1.6399086 4.436274-4.921526V.0010801h4.9892115zM8.8050275 0c5.1187777 0 9.2502973 1.4454958 12.3909093 4.332887 3.1260128 2.9035924 4.6917565 6.7288458 4.6917565 11.4739602 0 4.7325135-1.5493198 8.5361655-4.6443098 11.4073557-3.1442616 2.9179934-7.2885554 4.3760899-12.438356 4.3760899H0V0h8.8050275zm49.8616392.00072v31.5884928H53.724902V.00072h4.9417647zM8.4845793 4.3337871H4.9899414v22.9479204h3.4946379c4.0147276 0 7.087819-1.0728711 9.2174495-3.2186134 2.0073639-2.0107332 3.0110457-4.7631154 3.0110457-8.2553469 0-3.5066323-1.0036818-6.266215-3.0110457-8.2769483-2.1296305-2.1313412-5.2027219-3.1970118-9.2174495-3.1970118zm93.0107135 27.5773338h.6010445V.4035107h-4.4760144v17.1536496c0 .7305856.0671756 1.694034.199759 2.888568 0 .223975.01591.4408398.0459622.6488168 0 .1795356.0141422.3519609.0441944.5154982l.0441944.4479503-1.0023302-1.2763027c-.7725191-.9545606-1.394777-1.694034-1.8703094-2.2166426L77.9785391.0906566H77.3333v31.5076102h4.4760145V14.4001777c0-.7910232-.0459623-1.7846905-.1343512-2.9792245l-.199759-1.5216087 1.0023303 1.2531941c.7707513.94034 1.4089193 1.6869237 1.9145038 2.2397511l17.1032544 18.5188312zm8.002732-.3128541h20.3312173v-4.2555271h-15.4998794v-9.3162982h13.18409V13.84024h-13.18409V4.6803688h14.8776216V.4035108h-19.7089595v31.194756zM149.3649593 32c4.4689434 0 8.2396143-1.4913899 11.3137807-4.4777247 3.1024507-3.0609932 4.65456-6.8970114 4.65456-11.5098322 0-4.6288191-1.5521093-8.4648373-4.65456-11.5116099C157.6045736 1.5002778 153.8339027 0 149.3649593 0c-4.4972278 0-8.2838088 1.5002777-11.357975 4.5008332-3.1024508 3.0467726-4.6527924 6.8827908-4.6527924 11.5116099 0 4.6128208 1.5503416 8.448839 4.6527924 11.5098322C141.0811505 30.5086101 144.8677315 32 149.3649593 32zm0-4.3444061c-3.220892 0-5.8867014-1.118098-7.9938932-3.3578492-2.0647649-2.1953116-3.0953796-4.9558938-3.0953796-8.2853016 0-3.3454061 1.0306147-6.1130986 3.0953796-8.3084102 2.1071918-2.2397512 4.7730012-3.3596267 7.9938932-3.3596267 3.2226598 0 5.8654882 1.1198755 7.9284854 3.3596267 2.0629972 2.1953116 3.0953796 4.9630041 3.0953796 8.3084102 0 3.3294078-1.0323824 6.08999-3.0953796 8.2853016-2.0629972 2.2397512-4.7058256 3.3578492-7.9284854 3.3578492z" fill="#141414"/></svg>