<svg width="176" height="24" viewBox="0 0 176 24" xmlns="http://www.w3.org/2000/svg" xmlns:xlink="http://www.w3.org/1999/xlink"><defs><path d="M34.5718685.00081v17.0772814c0 2.278951-.6514808 4.0192163-1.9503364 5.2207959C31.4266944 23.4329624 29.7774626 24 27.6752052 24c-1.668393 0-3.105483-.3915259-4.3099013-1.1732277-1.0593406-.6804451-1.8914841-1.6214574-2.5019052-2.8243871l3.0343128-1.8536728c.4721868.8397556.9539541 1.4567465 1.4494079 1.8536728.6076838.4657808 1.3275975.6979962 2.155635.6979962 2.2172246 0 3.3272055-1.2299315 3.3272055-3.6911445V.0008101h3.7419086zM6.6037707 0c3.8390832 0 6.9377229 1.0841218 9.2931819 3.2496653 2.3445096 2.1776943 3.5188174 5.0466343 3.5188174 8.6054701 0 3.5493851-1.1619899 6.4021241-3.4832324 8.5555168-2.3581962 2.188495-5.4664165 3.2820674-9.328767 3.2820674H0V0zM44 .00054v23.6913696h-3.7063235V.00054H44zM6.3634345 3.2503403H3.742456v17.2109403h2.6209784c3.0110456 0 5.3158642-.8046533 6.9130871-2.41396 1.5055229-1.5080499 2.2582843-3.5723366 2.2582843-6.1915102 0-2.6299742-.7527614-4.6996613-2.2582843-6.2077112-1.5972229-1.598506-3.9020415-2.3977589-6.9130871-2.3977589z" id="a"/><path d="M0 24h15.967959v-3.2369577H8.6369753c-.3652675 0-.8010253.0229859-1.3072733.0689577l-.6459468.0676056c0 .012169.1935277-.1419718.5818648-.4597183.4293496-.3637183.7856456-.6976901 1.0650433-1.0046197l3.7782761-4.1901972C14.7029798 12.3488451 16 9.6405634 16 7.1202254c0-2.1011831-.6459468-3.8102536-1.9378404-5.1272113C12.7382249.6638873 10.9836591 0 8.798462 0 6.6683755 0 4.880487.6530704 3.4386415 1.9592113 2.0826658 3.1963943 1.1996155 4.860845.7907722 6.9498592l3.4706825.8342535c.6997757-2.9300282 2.2121115-4.3943662 4.5370073-4.3943662 2.4223006 0 3.6334508 1.2547605 3.6334508 3.7642817 0 1.8510422-1.0599166 3.9400563-3.1810317 6.2683943L0 23.6930704V24z" id="b"/></defs><g fill="#FFF" fill-rule="evenodd"><use xlink:href="#a"/><path d="M56 23.697367h6.4640084c3.7806076 0 6.8230456-1.0798801 9.1299932-3.2409733 2.2734554-2.1277635 3.4095133-4.9434507 3.4095133-8.4483946 0-3.5156094-1.1481151-6.348628-3.4430055-8.4977225C69.2535617 1.3718476 66.2218413.3013 62.4640084.3013H56v23.396067zm3.6627148-3.1916454V3.5102766h2.565508c2.94732 0 5.2033593.7892457 6.7667786 2.367737 1.4736599 1.4891678 2.2104899 3.5329407 2.2104899 6.1299855 0 2.5863793-.73683 4.6248195-2.2104899 6.1139873-1.5634193 1.5891568-3.8194587 2.3837352-6.7667786 2.3837352h-2.565508zM90.3135021 24c3.3867385 0 6.2442991-1.1198756 8.5740215-3.3596267 2.3511575-2.2944117 3.527406-5.1727586 3.527406-8.6323742 0-3.470281-1.1762485-6.348628-3.527406-8.6323742C96.5578012 1.1252083 93.7002406 0 90.3135021 0c-3.4095133 0-6.2777914 1.1252083-8.6075138 3.375625-2.3511575 2.2837462-3.5274061 5.162093-3.5274061 8.6323741 0 3.4596156 1.1762486 6.3379625 3.5274061 8.6323742C84.0357107 22.8801244 86.9039888 24 90.3135021 24zm0-3.2583046c-2.4422565 0-4.4611706-.8399067-6.0594218-2.5197201-1.5634192-1.6451505-2.3457987-3.7169203-2.3457987-6.2139762 0-2.5077213.7823795-4.5848239 2.3457987-6.2313076 1.5982512-1.6784802 3.6171653-2.5183869 6.0594218-2.5183869 2.4409167 0 4.4437546.8399067 6.0085135 2.5183869 1.5634192 1.6464837 2.3457987 3.7235863 2.3457987 6.2313076 0 2.4970559-.7823795 4.5688257-2.3457987 6.2139762-1.5647589 1.6798134-3.5675968 2.5197201-6.0085135 2.5197201zM117.6525735 24c4.3097855 0 7.5558565-1.6624819 9.7382129-4.988779l-2.8012936-1.9477836c-.7984558 1.1638707-1.7442775 2.0544384-2.8347859 2.67037-1.1708898.6719253-2.5373745 1.007888-4.1021334 1.007888-2.418142 0-4.4156211-.8399067-5.9910975-2.5197201-1.5634193-1.6451505-2.3457987-3.7169203-2.3457987-6.2139762 0-2.5077213.7823794-4.5848239 2.3457987-6.2313076 1.5754764-1.6451506 3.5729555-2.469059 5.9910975-2.469059 2.9486596 0 5.148432 1.1198756 6.5993172 3.3596267l2.8012936-1.9984446c-2.0818796-3.0903233-5.2140769-4.635485-9.4006108-4.635485-3.3867385 0-6.2335816 1.1252083-8.5391896 3.375625-2.3511574 2.2837462-3.527406 5.1500944-3.527406 8.5990445 0 3.4596156 1.1762486 6.3379625 3.527406 8.6323742C111.4189919 22.8801244 114.265835 24 117.6525735 24zm13.4062865-.302633h3.6627148v-7.1205422l2.6659848-3.1916454 7.2236131 10.3121876H149l-9.1648252-13.0332186L148.1050865.3012999h-4.1182097l-7.679108 9.5069436c-.2920526.3586268-.6135784.8505722-.9618981 1.4771692l-.8949135 1.6464838.1688011-1.6798134c.0683242-.7159205.1018165-1.3158538.1018165-1.7971336V.3012999H131.05886V23.697367z"/><use xlink:href="#b" transform="translate(159)"/></g></svg>