<svg width="232" height="24" viewBox="0 0 232 24" xmlns="http://www.w3.org/2000/svg" xmlns:xlink="http://www.w3.org/1999/xlink"><defs><path d="M55.8723858 11.9579463h-4.0673901v-8.477499h4.0673901c3.2603153 0 4.8904729 1.4138065 4.8904729 4.2374144 0 2.826278-1.6301576 4.2400846-4.8904729 4.2400846M33.6796972 0c3.6645196 0 6.425916 1.0413306 8.2855229 3.1279969L39.5279877 5.583134c-.7163622-.7636424-1.5060949-1.328364-2.369198-1.699505-.9858318-.4031818-2.1450847-.6047727-3.4790925-.6047727-2.4305624 0-4.4302402.8237192-5.9990335 2.4724926-1.5354431 1.6487735-2.3024976 3.7287646-2.3024976 6.2386383 0 2.5245592.7897326 4.5992101 2.370532 6.2239528 1.6354937 1.6808144 3.7699063 2.5218891 6.4019038 2.5218891 2.363862 0 4.2794973-.5046448 5.74824-1.5139345v-4.3709184h-6.2858451v-3.1800634h9.6302029v9.3332592c-.8964533.8090338-2.0570402 1.4765534-3.4790926 2.0012238C38.0272289 23.6675752 36.1556158 24 34.1506019 24c-3.6405075 0-6.6326872-1.1214329-8.973871-3.3642988-2.3411839-2.2535462-3.5124428-5.1358959-3.5124428-8.645714 0-3.4978027 1.1365747-6.366802 3.4110582-8.611003C27.3164795 1.1267732 30.1845965 0 33.6796972 0zm64.3375996.000534c3.0362022 0 5.2373152 1.2282361 6.6046732 3.6820382l-2.857445 1.7675919c-.863103-1.5272849-2.1117345-2.2895923-3.7472282-2.2895923-2.0170199 0-3.0255299.9091617-3.0255299 2.724815 0 1.4031263 1.1259027 2.5953163 3.377708 3.5819103l1.5127649.6902153c2.1290762.9412026 3.6525132 1.9184513 4.5716452 2.9264059C105.483739 14.2614229 106 15.7419814 106 17.5255938c0 2.0052289-.71236 3.6032709-2.134413 4.7914558-1.400708 1.1214329-3.221629 1.6821494-5.4614279 1.6821494-2.0957264 0-3.8993051-.4819492-5.41207-1.4471825-1.3099958-.8183791-2.3185057-1.9504923-3.0241959-3.3963398l2.9908457-1.6661289c.6496618 1.0653613 1.3273378 1.839684 2.033028 2.3216332.9191314.6394837 2.034362.9585581 3.3443578.9585581 2.7000323 0 4.0500483-1.0707014 4.0500483-3.2121043 0-.9425377-.330834-1.7328809-.991168-2.3696947-.549611-.5046448-1.5234372-1.0666963-2.9241455-1.6834844l-1.5461152-.6902153c-1.859607-.8290593-3.2042869-1.7155254-4.0327058-2.656728-.9644877-1.0987373-1.4460646-2.5005285-1.4460646-4.2040385 0-1.738221.6109757-3.162708 1.8315929-4.2721255C94.5101901.5612504 96.0896554.000534 98.0172968.000534zM56.0071206.2670078c2.542619 0 4.5596389.6007677 6.0497258 1.800968 1.6354936 1.2896478 2.4532405 3.1733882 2.4532405 5.649886 0 3.3763141-1.5848014 5.6125048-4.7557382 6.7125771l5.5121206 9.2665072h-4.1674406l-5.0585579-8.6777549h-4.2354751v8.6777549h-3.6458435V.2670078zM10.4359437.033109l10.2518506 23.66357H16.905882l-1.7302083-4.2721255H5.2266429L3.5124428 23.696679H0L10.0157312.033109h.4202125zm67.8318999 0l10.2505166 23.66357h-3.7805783l-1.7315423-4.2721255h-9.9490308l-1.7142001 4.2721255h-3.5111088L77.8476311.033109h.4202125zM10.150466 6.5761362l-.3695202 1.2442565c-.2801416.919842-.5322691 1.6541136-.7563824 2.2028147l-2.5546251 6.3734773h7.3944057l-2.537283-6.3734773c-.2361194-.548701-.4882469-1.261612-.7563825-2.1373978-.2574635-.7382766-.3975343-1.1761695-.4202125-1.3096734zm67.8318999 0l-.3708542 1.2442565c-.2801416.919842-.5322691 1.6541136-.7550484 2.2028147l-2.5546251 6.3734773h7.3944057l-2.538617-6.3734773c-.2347854-.548701-.4869129-1.261612-.7563825-2.1373978-.2574635-.7382766-.3975343-1.1761695-.4188785-1.3096734z" id="a"/><path d="M34.5718685.00081v17.0772814c0 2.278951-.6514808 4.0192163-1.9503364 5.2207959C31.4266944 23.4329624 29.7774626 24 27.6752052 24c-1.668393 0-3.105483-.3915259-4.3099013-1.1732277-1.0593406-.6804451-1.8914841-1.6214574-2.5019052-2.8243871l3.0343128-1.8536728c.4721868.8397556.9539541 1.4567465 1.4494079 1.8536728.6076838.4657808 1.3275975.6979962 2.155635.6979962 2.2172246 0 3.3272055-1.2299315 3.3272055-3.6911445V.0008101h3.7419086zM6.6037707 0c3.8390832 0 6.9377229 1.0841218 9.2931819 3.2496653 2.3445096 2.1776943 3.5188174 5.0466343 3.5188174 8.6054701 0 3.5493851-1.1619899 6.4021241-3.4832324 8.5555168-2.3581962 2.188495-5.4664165 3.2820674-9.328767 3.2820674H0V0zM44 .00054v23.6913696h-3.7063235V.00054H44zM6.3634345 3.2503403H3.742456v17.2109403h2.6209784c3.0110456 0 5.3158642-.8046533 6.9130871-2.41396 1.5055229-1.5080499 2.2582843-3.5723366 2.2582843-6.1915102 0-2.6299742-.7527614-4.6996613-2.2582843-6.2077112-1.5972229-1.598506-3.9020415-2.3977589-6.9130871-2.3977589z" id="b"/></defs><g fill="#FFF" fill-rule="evenodd"><path d="M179.011485 23.697367h3.6408633V3.5102766h6.9953513V.3013H172v3.2089767h7.011485V23.697367zM199.5592372 24c2.6432559 0 4.764852-.705255 6.3688216-2.1170981 1.6483376-1.4545051 2.4725064-3.41962 2.4725064-5.8940118 0-2.2504166-.7677004-4.0648817-2.3031014-5.442062-1.5354009-1.3665148-3.5400269-2.0491056-6.0125333-2.0491056-1.5582572 0-2.8287948.2973003-3.8116127.8905677V3.5102766h10.6026024V.3013h-13.8038193v13.2851905l.3226762.1679813c.7784564-.6719253 1.5972472-1.1865348 2.4550282-1.5451616 1.0500421-.4359516 2.1968871-.654594 3.4391905-.654594 3.5333045 0 5.3013012 1.4891679 5.3013012 4.4675037 0 3.1236529-1.6765718 4.6861459-5.0310598 4.6861459-1.3767519 0-2.5679649-.3199644-3.573639-.9572269-.8349247-.5266082-1.530023-1.2651928-2.0826061-2.217087l-3.1165143 1.6624819c.7784563 1.4438396 1.913201 2.5917121 3.404234 3.4422842C195.7718251 23.546717 197.5613335 24 199.5592371 24zm21.5319144 0c2.7548481 0 5.0418157-.9692256 6.8595583-2.9063437.9599618-1.0185535 1.6994281-2.2610821 2.2197435-3.7275859C230.7230363 15.786246 231 14.001111 231 12.0079991c0-1.9931119-.2769637-3.7782468-.8295467-5.3580713-.5203154-1.4665037-1.2597817-2.714365-2.2197435-3.7449173C226.1329672.9678926 223.8459996 0 221.0911515 0c-2.7669485 0-5.0579496.9678925-6.8756922 2.9050106-.9599617 1.0305521-1.7007725 2.2784135-2.2197434 3.7449172-.552583 1.5798245-.8295468 3.3649594-.8295468 5.3580713 0 1.9931119.2769638 3.7782469.8295468 5.3580713.5189709 1.4665038 1.2597817 2.7090324 2.2197434 3.7275859C216.0332019 23.0307744 218.324203 24 221.0911515 24zm0-3.224975c-1.8177427 0-3.2630632-.6945895-4.3359616-2.0824353-1.185835-1.5451616-1.7787526-3.7729141-1.7787526-6.6845906 0-2.922342.5929176-5.1500944 1.7787526-6.6845906 1.0728984-1.3998445 2.5182189-2.0997667 4.3359616-2.0997667 1.8069867 0 3.2469293.6999223 4.3198277 2.0997667 1.1844906 1.5344962 1.7774081 3.7622486 1.7774081 6.6845906 0 2.9116765-.5929175 5.139429-1.7774081 6.6845906-1.0728984 1.3878458-2.512841 2.0824353-4.3198277 2.0824353z"/><use xlink:href="#a" transform="translate(56)"/><use xlink:href="#b"/></g></svg>