<svg width="340" height="32" viewBox="0 0 340 32" xmlns="http://www.w3.org/2000/svg"><path d="M232.0915891 32c3.476721 0 6.3086552-.9307455 8.4921386-2.790436C242.860632 27.2598593 244 24.6440507 244 21.3639381c0-2.7976372-.9232179-5.0875949-2.7696535-6.873474-1.7695008-1.7084669-4.0683865-2.6986216-6.9003205-2.9704641 0 .0324051.1923369-.1512236.5770111-.5436849.4927492-.4680732.947031-.9685514 1.3628453-1.497834l7.1292933-9.0464136V0h-20.5599145v4.333277h10.0601435c.4780949 0 1.0551061-.032405 1.7310334-.0936145l.8774232-.0900141-.577011.5688889c-.4469547.435668-.8078156.83173-1.0844147 1.177384l-7.407724 9.3902672.2308045.4302672c.5074035-.1944304 1.122882-.3636568 1.8464357-.498678.9067318-.1674261 1.8299496-.250239 2.7696535-.250239 5.0758662 0 7.6147152 2.0721237 7.6147152 6.214571 0 4.2504642-2.346512 6.3729958-7.0377041 6.3729958-1.8171272 0-3.401618-.460872-4.7553045-1.382616-1.1686766-.786723-2.1230347-1.861491-2.8612426-3.2207032L220 25.1301265c.9690124 2.0379186 2.5150359 3.6815754 4.6380705 4.9183686C226.854526 31.3518988 229.3384216 32 232.0915891 32m92.180911-32c4.4171671 0 8.1294112 1.4741533 11.1332252 4.4224599C338.4691596 7.463458 340 11.3244207 340 16.0089127c0 4.6720142-1.5308404 8.5276291-4.5942747 11.5668449C332.4019113 30.5240641 328.6896672 32 324.2725001 32c-4.432949 0-8.145193-1.4759359-11.1349788-4.4242424-3.0774625-3.0392158-4.6170706-6.8948307-4.6170706-11.5668449 0-4.684492 1.5396081-8.5454546 4.6170706-11.5864528C316.1273071 1.4741533 319.8395511 0 324.2725001 0zm-56.1220464.3582888c7.1719784 0 10.7579676 3.114082 10.7579676 9.3404634 0 6.1996436-3.5859892 9.2994652-10.7579676 9.2994652h-6.2952084v12.6417113H260V.3582887h8.1504537zm24.7214064 0c3.2984086 0 5.8831266.7789661 7.7524002 2.3368984 1.9446757 1.600713 2.9161369 3.889483 2.9161369 6.8716577 0 4.5650624-2.2164745 7.4616756-6.6494236 8.6898395l7.7313577 13.3832443h-2.2077068l-7.4665732-13.026738-1.017053.0926916-7.4437772.0213904v12.912656h-1.8552452V.3582887h8.2398842zm31.40064 1.3475936c-3.9630002 0-7.2614089 1.3636363-9.8969796 4.087344-2.637324 2.7094474-3.9542325 6.1158645-3.9542325 10.2156863 0 4.0873439 1.3169085 7.4955435 3.9542325 10.2192513 2.6355707 2.7254901 5.9339794 4.0873439 9.8969796 4.0873439 3.9612468 0 7.2526412-1.3618538 9.8741835-4.0873439 2.6355705-2.7237078 3.9542327-6.1319074 3.9542327-10.2192513 0-4.0998218-1.3186622-7.506239-3.9542327-10.2156863-2.6215423-2.7237077-5.9129367-4.087344-9.8741835-4.087344zm-56.3201964.315508h-6.0970584v15.3137255h6.0970584c6.037438 0 9.0570339-2.543672 9.0570339-7.6363637 0-5.1194296-3.0195959-7.6773618-9.0570339-7.6773618zm24.7424488 0h-6.2075314v15.0445633h6.2075314c5.9637894 0 8.946561-2.4991088 8.946561-7.4991088 0-5.030303-2.9827716-7.5454545-8.946561-7.5454545zM46.3577328.00108v22.7697085c0 3.0386014-.8735766 5.3589551-2.6152238 6.9610612C42.1403402 31.2439499 39.9288703 32 37.1099342 32c-2.2371633 0-4.1641703-.5220345-5.7791858-1.5643036-1.4204794-.9072601-2.5363082-2.1619432-3.3548274-3.7658495l4.0687376-2.4715637c.6331596 1.1196741 1.2791657 1.9423287 1.9435242 2.4715637.8148488.6210411 1.7801876.9306616 2.8905106.9306616 2.9730966 0 4.4614801-1.6399086 4.4614801-4.921526V.0010801h5.0175593zM8.8550561 0c5.1478616 0 9.3028558 1.4454958 12.4613122 4.332887 3.1437742 2.9035924 4.7184142 6.7288458 4.7184142 11.4739602 0 4.7325135-1.5581228 8.5361655-4.670698 11.4073557-3.1621267 2.9179934-7.3299676 4.3760899-12.5090284 4.3760899H0V0h8.8550561zM59 .00072v31.5884928h-4.9698429V.00072H59zM8.5327871 4.3337871H5.0182934v22.9479204H8.532787c4.0375385 0 7.1280907-1.0728711 9.2698214-3.2186134 2.0187694-2.0107332 3.028154-4.7631154 3.028154-8.2553469 0-3.5066323-1.0093846-6.266215-3.028154-8.2769483-2.1417307-2.1313412-5.2322829-3.1970118-9.2698214-3.1970118zM194.912986 0c5.624409 0 9.835515 2.0630806 12.633316 6.1892418l-3.766409 2.6682984c-1.94982-2.9904879-4.906055-4.4857318-8.866907-4.4857318-3.251499 0-5.935877 1.1000723-8.051332 3.2966569-2.102852 2.1983645-3.154278 4.971686-3.154278 8.3181843 0 3.334038 1.051426 6.1020192 3.154278 8.2986037 2.115455 2.2410859 4.799833 3.364299 8.051332 3.364299 2.101052 0 3.937446-.4503534 5.510985-1.3474996 1.465515-.8223843 2.736588-2.0114591 3.809619-3.5654448L208 25.3372643C205.065369 29.7784948 200.703031 32 194.912986 32c-4.551379 0-8.377202-1.4952439-11.477468-4.4857317-3.15968-3.0652502-4.74042-6.906603-4.74042-11.5276187 0-4.6032152 1.58074-8.4303276 4.74042-11.4795572C186.535784 1.5023641 190.361607 0 194.912986 0zm-54.3644906.3577905l7.1223315 16.7752128c.3924845.850865.822777 2.0328196 1.292678 3.542304.408688 1.2851978.6121317 1.9580575.6121317 2.0185794 0-.0907827.181839-.747622.5437169-1.974078.4699011-1.5094844.9073951-2.7056795 1.316083-3.5868054L158.4443436.3577905h4.7854291l-13.4722971 31.5514268h-.6121315L135.3093688.3577905h5.2391266zM75.5221123.0427213l15.0818431 17.4480724L105.5741746.0427213h.4987073V31.595928h-4.6954098V15.3832119c0-.7031207.0306066-1.6518886.0900195-2.8480837l.0918197-1.6145074-.97581 1.3902208c-.7111528 1.0021695-1.3232844 1.7800523-1.8363948 2.3318685l-7.9613119 9.462758h-.543717l-7.9397073-9.462758c-.4987073-.5518162-1.0874339-1.3172387-1.7679802-2.2891472l-1.0208195-1.4329421.0900193 1.6145074c.0612132 1.1961951.0918198 2.144963.0918198 2.8480837v16.2127162H75V.0427213h.5221123zm49.1199627 0l13.8341748 31.5532068h-5.1022972l-2.3369025-5.6961673h-13.4272874l-2.3134974 5.6961673h-4.738619L124.074953.0427213h.567122zm48.0307283.3150692v31.2381376h-4.8754484V.3577905h4.8754484zm-48.4160112 8.410747l-.5005076 1.6572288c-.3780814 1.228236-.7183546 2.2072648-1.0208196 2.9388662l-3.445941 8.4997498h9.9795459l-3.4261366-8.4997498c-.3168681-.7316014-.6571413-1.6839294-1.0208196-2.8480836-.3474747-.986149-.5365153-1.5717861-.5653215-1.7480113z" fill="#FFF"/></svg>